<?xml version="1.0" encoding="utf-8"?>
<svg viewBox="-1474.364 -107.447 1134.791 810.565" width="1134.791" height="810.565" xmlns="http://www.w3.org/2000/svg">
  <path fill-rule="evenodd" clip-rule="evenodd" d="M -1474.364 297.836 C -1474.364 176.251 -1271.723 -107.447 -906.969 -107.447 C -542.215 -107.447 -339.573 176.251 -339.573 297.836 C -339.573 419.42 -542.215 703.118 -906.969 703.118 C -1271.723 703.118 -1474.364 419.42 -1474.364 297.836 Z M -906.969 554.515 C -709.353 554.515 -585.877 340.633 -684.658 169.496 C -730.536 90.061 -815.267 41.157 -906.969 41.157 C -1104.531 41.157 -1228.061 255.038 -1129.226 426.175 C -1083.402 505.61 -998.671 554.515 -906.969 554.515 Z M -761.067 297.836 C -761.067 410.126 -882.652 480.321 -979.92 424.176 C -1025.041 398.13 -1052.871 349.928 -1052.871 297.836 C -1052.871 185.491 -931.286 115.296 -834.018 171.496 C -788.842 197.542 -761.067 245.689 -761.067 297.836 Z" style="fill: rgb(216, 221, 228);"/>
</svg>