<?xml version="1.0" encoding="utf-8"?>
<svg viewBox="-676.117 -6.772 2647.2219 367.759" width="2647.222" height="367.759" xmlns="http://www.w3.org/2000/svg">
  <path id="secretos.pro" class="cls-1" d="M 19.975 259.413 C 59.815 259.413 89.415 237.873 89.415 206.253 C 89.415 175.093 68.185 162.383 38.885 155.563 L 22.765 151.693 C 9.435 148.433 3.075 145.023 3.075 138.053 C 3.075 131.083 10.985 127.043 20.595 127.043 C 33.145 127.043 46.945 132.163 55.155 146.263 L 87.245 117.743 C 71.435 96.513 46.015 86.743 18.425 86.743 C -18.775 86.743 -48.845 105.963 -48.845 136.963 C -48.845 165.333 -28.235 181.143 -0.175 188.113 L 14.855 191.833 C 30.825 195.713 36.555 199.433 36.555 206.713 C 36.555 214.623 28.035 218.963 17.335 218.963 C 1.215 218.963 -13.815 210.903 -25.445 194.783 L -57.065 224.853 C -41.405 246.393 -11.955 259.413 19.975 259.413 Z M 203.495 259.413 C 234.185 259.413 260.225 250.423 281.925 229.033 L 256.195 196.643 C 243.759 210.161 226.203 217.813 207.835 217.723 C 185.205 217.723 168.305 206.093 164.435 187.963 L 284.715 187.963 C 289.675 124.873 255.265 86.743 198.685 86.743 C 144.905 86.743 109.875 124.563 109.875 173.393 C 109.875 222.063 146.145 259.413 203.495 259.413 Z M 161.795 152.153 C 164.435 133.713 179.005 123.483 198.225 123.483 C 217.285 123.483 231.705 133.713 234.335 152.153 L 161.795 152.153 Z M 396.775 259.413 C 433.045 259.413 466.375 242.363 481.875 208.113 L 432.735 187.653 C 426.845 204.083 413.515 212.293 396.465 212.293 C 375.545 212.293 360.195 196.333 360.195 173.083 C 360.195 149.983 375.545 133.863 396.465 133.863 C 413.515 133.863 426.845 141.153 432.735 157.733 L 481.875 137.893 C 466.375 103.643 433.045 86.743 396.775 86.743 C 342.525 86.743 306.105 124.413 306.105 173.083 C 306.105 221.903 342.525 259.413 396.775 259.413 Z M 508.525 254.303 L 563.245 254.303 L 563.245 185.323 C 563.245 156.033 581.535 143.783 603.235 143.783 C 609.049 143.805 614.835 144.589 620.445 146.113 L 620.445 89.693 C 617.975 89.372 615.486 89.215 612.995 89.223 C 595.635 89.223 573.475 96.353 563.245 116.503 L 563.245 92.793 L 508.525 92.793 L 508.525 254.303 Z M 728.475 259.413 C 759.165 259.413 785.205 250.423 806.905 229.033 L 781.175 196.643 C 768.739 210.161 751.183 217.813 732.815 217.723 C 710.185 217.723 693.285 206.093 689.415 187.963 L 809.695 187.963 C 814.655 124.873 780.245 86.743 723.665 86.743 C 669.885 86.743 634.855 124.563 634.855 173.393 C 634.855 222.063 671.125 259.413 728.475 259.413 Z M 686.775 152.153 C 689.415 133.713 703.985 123.483 723.205 123.483 C 742.265 123.483 756.685 133.713 759.315 152.153 L 686.775 152.153 Z M 924.245 257.093 C 936.313 256.993 948.328 255.483 960.045 252.593 L 960.045 208.883 C 953.473 210.281 946.775 211.008 940.055 211.053 C 921.915 211.053 911.685 204.853 911.685 184.243 L 911.685 139.293 L 960.205 139.293 L 960.205 92.793 L 911.685 92.793 L 911.685 40.243 L 856.965 40.243 L 856.965 92.793 L 824.415 92.793 L 824.415 139.293 L 856.965 139.293 L 856.965 194.313 C 856.965 240.973 885.025 257.093 924.245 257.093 Z M 1072.115 259.413 C 1124.965 259.413 1163.875 223.143 1163.875 173.083 C 1163.875 123.023 1124.965 86.743 1072.115 86.743 C 1019.265 86.743 980.505 123.013 980.505 173.083 C 980.505 223.153 1019.255 259.413 1072.115 259.413 Z M 1072.115 212.293 C 1049.945 212.293 1034.605 196.173 1034.605 173.083 C 1034.605 149.993 1049.945 133.863 1072.115 133.863 C 1094.435 133.863 1109.935 149.983 1109.935 173.083 C 1109.935 196.183 1094.435 212.293 1072.115 212.293 Z M 1256.405 259.413 C 1296.245 259.413 1325.845 237.873 1325.845 206.253 C 1325.845 175.093 1304.615 162.383 1275.315 155.563 L 1259.195 151.693 C 1245.865 148.433 1239.515 145.023 1239.515 138.053 C 1239.515 131.083 1247.415 127.043 1257.025 127.043 C 1269.585 127.043 1283.375 132.163 1291.595 146.263 L 1323.675 117.743 C 1307.865 96.513 1282.445 86.743 1254.855 86.743 C 1217.655 86.743 1187.585 105.963 1187.585 136.963 C 1187.585 165.333 1208.205 181.143 1236.255 188.113 L 1251.295 191.833 C 1267.255 195.713 1272.995 199.433 1272.995 206.713 C 1272.995 214.623 1264.465 218.963 1253.775 218.963 C 1237.655 218.963 1222.615 210.903 1210.995 194.783 L 1179.375 224.853 C 1195.025 246.393 1224.475 259.413 1256.405 259.413 Z M 1382.575 259.413 C 1401.485 259.413 1415.435 246.083 1415.435 226.093 C 1415.435 206.253 1401.485 192.923 1382.575 192.923 C 1363.515 192.923 1349.095 206.253 1349.095 226.093 C 1349.095 246.083 1363.515 259.413 1382.575 259.413 Z M 1552.145 259.413 C 1598.485 259.413 1631.505 223.143 1631.505 173.543 C 1631.505 123.943 1598.485 87.673 1552.145 87.673 C 1531.215 87.673 1513.705 95.423 1503.315 108.443 L 1503.315 92.793 L 1448.445 92.793 L 1448.445 313.973 L 1503.315 313.973 L 1503.315 238.643 C 1513.705 251.663 1531.215 259.413 1552.145 259.413 Z M 1537.265 212.603 C 1516.185 212.603 1499.755 197.413 1499.755 173.543 C 1499.755 149.523 1516.185 134.333 1537.265 134.333 C 1558.345 134.333 1574.775 149.523 1574.775 173.543 C 1574.775 197.413 1558.345 212.603 1537.265 212.603 Z M 1661.575 254.303 L 1716.285 254.303 L 1716.285 185.323 C 1716.285 156.033 1734.575 143.783 1756.275 143.783 C 1762.089 143.805 1767.875 144.589 1773.485 146.113 L 1773.485 89.693 C 1771.018 89.372 1768.533 89.215 1766.045 89.223 C 1748.685 89.223 1726.515 96.353 1716.285 116.503 L 1716.285 92.793 L 1661.575 92.793 L 1661.575 254.303 Z M 1879.345 259.413 C 1932.205 259.413 1971.105 223.143 1971.105 173.083 C 1971.105 123.023 1932.205 86.743 1879.345 86.743 C 1826.485 86.743 1787.745 123.013 1787.745 173.083 C 1787.745 223.153 1826.495 259.413 1879.345 259.413 Z M 1879.345 212.293 C 1857.185 212.293 1841.835 196.173 1841.835 173.083 C 1841.835 149.993 1857.185 133.863 1879.345 133.863 C 1901.665 133.863 1917.165 149.983 1917.165 173.083 C 1917.165 196.183 1901.665 212.293 1879.345 212.293 Z" style="fill-rule: evenodd; fill: rgb(255, 255, 255);"/>
  <path fill-rule="evenodd" clip-rule="evenodd" d="M -676.117 177.107 C -676.117 121.943 -584.177 -6.772 -418.685 -6.772 C -253.194 -6.772 -161.255 121.943 -161.255 177.107 C -161.255 232.271 -253.194 360.987 -418.685 360.987 C -584.177 360.987 -676.117 232.271 -676.117 177.107 Z M -418.685 293.565 C -329.027 293.565 -273.004 196.525 -317.823 118.878 C -338.637 82.839 -377.08 60.65 -418.685 60.65 C -508.321 60.65 -564.368 157.689 -519.526 235.335 C -498.734 271.376 -460.293 293.565 -418.685 293.565 Z M -352.489 177.107 C -352.489 228.054 -407.653 259.902 -451.784 234.428 C -472.255 222.611 -484.882 200.743 -484.882 177.107 C -484.882 126.136 -429.719 94.288 -385.587 119.787 C -365.091 131.603 -352.489 153.448 -352.489 177.107 Z" style="fill: rgb(255, 255, 255);"/>
</svg>