<?xml version="1.0" standalone="no"?>
<!DOCTYPE svg PUBLIC "-//W3C//DTD SVG 1.1//EN" "http://www.w3.org/Graphics/SVG/1.1/DTD/svg11.dtd">
<svg xmlns="http://www.w3.org/2000/svg" viewBox="-2577.396 -1626.264 4042.1213 810.5651" width="4042.121337890625" height="810.5651245117188">
  <g transform="matrix(1, 0, 0, 1, 9.094947017729282e-13, -2.759552001953125)">
    <g id="Letra" transform="matrix(1, 0, 0, 1, -2569.686768, -1645.908447)">
      <path id="Estudiante" class="cls-1" d="M1647.54,1351.99h251.33v-77.12H1736.83v-64.23h140.63v-77.13H1736.83v-62.04h160.58V994.349H1647.54V1351.99Zm401.92,8.03c62.53,0,109-33.82,109-83.45,0-48.9-33.33-68.85-79.31-79.56l-25.31-6.08c-20.92-5.11-30.89-10.46-30.89-21.41s12.4-17.27,27.49-17.27c19.7,0,41.36,8.02,54.25,30.16l50.36-44.76c-24.81-33.33-64.71-48.66-108.02-48.66-58.39,0-105.59,30.17-105.59,78.83,0,44.52,32.36,69.34,76.4,80.28l23.6,5.84c25.06,6.09,34.06,11.92,34.06,23.36,0,12.41-13.38,19.22-30.17,19.22-25.3,0-48.9-12.65-67.15-37.95l-49.63,47.19C1953.12,1339.58,1999.35,1360.02,2049.46,1360.02Zm287.82-3.65a243.049,243.049,0,0,0,56.2-7.06v-68.6a156.647,156.647,0,0,1-31.38,3.4c-28.47,0-44.53-9.73-44.53-42.09v-70.55h76.15v-72.99h-76.15V1016h-85.88v82.48H2180.6v72.99h51.09v86.37C2231.69,1331.07,2275.73,1356.37,2337.28,1356.37Zm194.63,3.65c36,0,61.79-12.41,78.34-34.31v26.28h86.12V1098.48h-86.12v135.51c0,35.28-13.87,53.28-42.34,53.28-28.22,0-42.09-18-42.09-53.28V1098.48H2439.7v158.87C2439.7,1321.82,2472.79,1360.02,2531.91,1360.02Zm336.22,0c32.84,0,60.33-12.17,76.88-32.6v24.57h85.88V970.019h-85.88V1123.05c-16.55-20.44-44.04-32.6-76.88-32.6-72.5,0-124.33,56.93-124.33,134.78S2795.63,1360.02,2868.13,1360.02Zm23.6-73.48c-33.33,0-58.88-23.84-58.88-61.31,0-37.71,25.55-61.55,58.88-61.55,33.08,0,58.87,23.84,58.87,61.55C2950.6,1262.7,2924.81,1286.54,2891.73,1286.54Zm245.23-221.88c28.71,0,50.36-19.46,50.36-48.41s-21.65-48.177-50.36-48.177c-28.95,0-50.85,19.22-50.85,48.177S3108.01,1064.66,3136.96,1064.66Zm-43.3,287.33h86.12V1098.48h-86.12v253.51Zm257.89,8.03c32.84,0,60.33-12.17,76.88-32.6v24.57h85.88V1098.48h-85.88v24.57c-16.55-20.44-44.04-32.6-76.88-32.6-72.51,0-124.08,56.93-124.08,134.78S3279.04,1360.02,3351.55,1360.02Zm23.6-73.48c-33.34,0-58.88-23.84-58.88-61.31,0-37.71,25.54-61.55,58.88-61.55,33.08,0,58.87,23.84,58.87,61.55C3434.02,1262.7,3408.23,1286.54,3375.15,1286.54Zm201.93,65.45h85.88V1216.48c0-35.53,14.11-53.53,42.33-53.53,28.47,0,42.33,18,42.33,53.53v135.51h85.89V1192.88c0-64.23-33.09-102.43-92.21-102.43-35.77,0-61.55,12.41-78.34,34.3v-26.27h-85.88v253.51Zm449.6,4.38a243.116,243.116,0,0,0,56.2-7.06v-68.6a156.67,156.67,0,0,1-31.39,3.4c-28.46,0-44.52-9.73-44.52-42.09v-70.55h76.15v-72.99h-76.15V1016h-85.88v82.48H3870v72.99h51.09v86.37C3921.09,1331.07,3965.12,1356.37,4026.68,1356.37Zm235.5,3.65c48.18,0,89.05-14.11,123.11-47.69l-40.39-50.84a102.444,102.444,0,0,1-75.9,33.08c-35.53,0-62.04-18.24-68.13-46.71h188.8c7.78-99.02-46.23-158.87-135.03-158.87-84.42,0-139.41,59.36-139.41,136C4115.23,1301.39,4172.16,1360.02,4262.18,1360.02Zm-65.44-168.36c4.13-28.95,27-45.01,57.17-45.01,29.93,0,52.55,16.06,56.69,45.01H4196.74Z" transform="translate(-356 -884)" style="fill: rgb(255, 255, 255); fill-rule: evenodd;"/>
      <path id="anonimo" class="cls-1" d="M3136.76,1655.3c26.19,0,46.19-11.63,56.42-25.89v21.55h31.77V1489.45h-31.77v21.54c-10.23-14.26-30.23-25.88-56.42-25.88-48.21,0-82.46,36.11-82.46,85.09S3088.55,1655.3,3136.76,1655.3Zm4.8-28.21c-29.91,0-53.63-21.86-53.63-56.89s23.72-56.88,53.63-56.88c30.07,0,53.79,21.85,53.79,56.88S3171.63,1627.09,3141.56,1627.09Zm131.75,23.87h31.78v-89.44c0-31.46,14.41-48.51,40.3-48.51s40.3,17.05,40.3,48.51v89.44h31.77v-96.72c0-43.09-22.94-69.13-61.53-69.13-24.18,0-40.61,8.68-50.84,23.4v-19.06h-31.78v161.51Zm264.74,4.34c50.84,0,87.27-36.27,87.27-85.25,0-48.83-36.43-85.1-87.27-85.1s-87.11,36.27-87.11,85.1C3450.94,1619.03,3487.21,1655.3,3538.05,1655.3Zm0-28.21c-32.39,0-53.94-23.87-53.94-57.04s21.55-56.89,53.94-56.89,54.1,23.72,54.1,56.89S3570.45,1627.09,3538.05,1627.09Zm122.91,23.87h31.78v-89.44c0-31.46,14.41-48.51,40.3-48.51s40.3,17.05,40.3,48.51v89.44h31.77v-96.72c0-43.09-22.94-69.13-61.53-69.13-24.18,0-40.61,8.68-50.84,23.4v-19.06h-31.78v161.51Zm206.31-196.39c12.24,0,21.39-8.37,21.39-20.92,0-12.71-9.15-21.08-21.39-21.08-12.4,0-21.55,8.37-21.55,21.08C3845.72,1446.2,3854.87,1454.57,3867.27,1454.57Zm-15.97,196.39h31.78V1489.45H3851.3v161.51Zm80.14,0h31.77v-89.44c0-31.46,12.87-48.51,38.75-48.51,27.44,0,38.75,17.05,38.75,48.51v89.44h31.78v-89.44c0-31.46,12.86-48.51,38.75-48.51,27.43,0,38.75,17.05,38.75,48.51v89.44h31.77v-96.72c0-43.09-19.84-69.13-59.98-69.13-24.65,0-44.8,8.83-56.58,30.53-8.99-19.53-26.5-30.53-52.7-30.53-25.73,0-39.06,8.68-49.29,23.4v-19.06h-31.77v161.51Zm370.91,4.34c50.84,0,87.27-36.27,87.27-85.25,0-48.83-36.43-85.1-87.27-85.1s-87.11,36.27-87.11,85.1C4215.24,1619.03,4251.51,1655.3,4302.35,1655.3Zm0-28.21c-32.39,0-53.94-23.87-53.94-57.04s21.55-56.89,53.94-56.89,54.1,23.72,54.1,56.89S4334.75,1627.09,4302.35,1627.09Z" transform="translate(-356 -884)" style="fill: rgb(255, 255, 255); fill-rule: evenodd;"/>
    </g>
  </g>
  <path fill-rule="evenodd" clip-rule="evenodd" d="M -2577.396 -1220.981 C -2577.396 -1342.566 -2374.755 -1626.264 -2010.001 -1626.264 C -1645.247 -1626.264 -1442.605 -1342.566 -1442.605 -1220.981 C -1442.605 -1099.397 -1645.247 -815.699 -2010.001 -815.699 C -2374.755 -815.699 -2577.396 -1099.397 -2577.396 -1220.981 Z M -2010.001 -964.302 C -1812.385 -964.302 -1688.909 -1178.184 -1787.69 -1349.321 C -1833.568 -1428.756 -1918.299 -1477.66 -2010.001 -1477.66 C -2207.563 -1477.66 -2331.093 -1263.779 -2232.258 -1092.642 C -2186.434 -1013.207 -2101.703 -964.302 -2010.001 -964.302 Z M -1864.099 -1220.981 C -1864.099 -1108.691 -1985.684 -1038.496 -2082.952 -1094.641 C -2128.073 -1120.687 -2155.903 -1168.889 -2155.903 -1220.981 C -2155.903 -1333.326 -2034.318 -1403.521 -1937.05 -1347.321 C -1891.874 -1321.275 -1864.099 -1273.128 -1864.099 -1220.981 Z" style="fill: rgb(255, 255, 255);" transform="matrix(1, 0, 0, 1, 9.094947017729282e-13, 0)"/>
</svg>